<svg width="100" height="100" viewBox="0 0 100 100" fill="none" xmlns="http://www.w3.org/2000/svg">
<circle cx="50" cy="50" r="50" fill="#F9F4E8"/>
<path d="M35.18 25.1792C30.0446 26.2 26.1754 30.0953 25.2023 35.2343C24.9326 36.6305 24.9326 63.3346 25.2023 64.7308C26.1871 69.905 30.0915 73.812 35.262 74.7976C36.6573 75.0675 63.3427 75.0675 64.7497 74.7976C69.9085 73.812 73.8129 69.905 74.7977 64.7308C75.0674 63.3346 75.0674 36.6305 74.7977 35.2343C73.9418 30.7054 70.7058 26.9861 66.4263 25.5899C64.5621 24.9798 64.8435 24.9915 49.8945 25.0032C38.6505 25.015 35.8366 25.0384 35.18 25.1792ZM64.3628 34.2487C65.3242 34.6829 65.8284 35.4572 65.8284 36.4897C65.8284 37.9446 64.8318 38.9654 63.4131 38.9771C61.2557 39.0006 60.1067 36.5015 61.5254 34.8823C62.2406 34.0727 63.4131 33.8029 64.3628 34.2487ZM51.2897 37.5457C53.3064 37.7803 55.323 38.5078 56.9996 39.6224C57.8907 40.209 59.2742 41.5231 59.9894 42.4735C60.7398 43.4591 61.7716 45.5592 62.0764 46.756C62.8503 49.7714 62.5689 52.6459 61.2088 55.4383C60.4702 56.9519 59.7432 57.9492 58.5473 59.0755C54.8306 62.5954 49.3551 63.4754 44.7591 61.3048C43.3404 60.636 42.5079 60.0728 41.4527 59.0755C40.2568 57.9492 39.5416 56.9519 38.7912 55.4383C36.3876 50.534 37.4077 44.7849 41.3472 40.9952C42.6721 39.728 43.7742 39.0123 45.4977 38.3318C47.3854 37.5809 49.3317 37.3228 51.2897 37.5457Z" fill="black"/>
<path d="M48.3585 42.6612C47.0571 42.9311 45.7322 43.6703 44.7122 44.691C41.7693 47.6477 41.7575 52.3174 44.7122 55.2624C47.6785 58.219 52.3449 58.2308 55.2761 55.2741C58.2425 52.2939 58.2425 47.6712 55.2761 44.691C53.4588 42.8607 50.8911 42.1098 48.3585 42.6612Z" fill="black"/>
</svg>
